<?xml version="1.0" encoding="UTF-8" standalone="no"?><!DOCTYPE svg PUBLIC "-//W3C//DTD SVG 1.1//EN" "http://www.w3.org/Graphics/SVG/1.1/DTD/svg11.dtd"><svg width="190px" height="80px" version="1.1" xmlns="http://www.w3.org/2000/svg" xmlns:xlink="http://www.w3.org/1999/xlink" xml:space="preserve" xmlns:serif="http://www.serif.com/" style="fill-rule:evenodd;clip-rule:evenodd;stroke-linejoin:round;stroke-miterlimit:2;"><g><g><g><g><path d="M58.033,26.126c-0.353,-0.059 -0.707,-0.118 -1.062,-0.157c-0.353,-0.059 -0.707,-0.098 -1.061,-0.118c-1.987,-0.138 -3.894,0.059 -5.684,0.57c-2.104,0.59 -4.11,1.613 -5.978,3.068c-1.868,1.455 -3.323,3.127 -4.405,5.034c-0.158,0.279 -0.307,0.563 -0.449,0.851c-0.502,1 -0.559,2.165 -0.156,3.21c0.404,1.044 1.229,1.869 2.273,2.272c0.007,-0.002 0.012,-0 0.018,0.002c0.379,0.147 0.803,0.126 1.166,-0.057c0.364,-0.183 0.633,-0.511 0.741,-0.903c0.055,-0.181 0.108,-0.36 0.163,-0.537c0.688,-2.222 2.026,-4.11 3.973,-5.624c1.947,-1.515 4.09,-2.36 6.43,-2.518c0.748,-0.059 1.514,-0.019 2.321,0.079l0.059,0c3.205,0.413 5.82,1.908 7.826,4.484c2.006,2.576 2.812,5.467 2.419,8.712c-0.393,3.244 -1.887,5.879 -4.464,7.905c-1.785,1.39 -3.72,2.204 -5.807,2.442c-1.44,0.146 -2.511,1.397 -2.435,2.842c-0.06,0.015 -0.059,0.028 -0.059,0.041c0.037,0.73 0.369,1.414 0.921,1.894c0.552,0.48 1.275,0.714 2.004,0.649c3.139,-0.36 6.03,-1.558 8.68,-3.621c3.756,-2.93 5.919,-6.764 6.509,-11.464c0.571,-4.74 -0.609,-8.968 -3.54,-12.724c-2.694,-3.48 -6.174,-5.584 -10.403,-6.332l0,0Z" style="fill:#74aa00;fill-rule:nonzero;"/><path d="M53.925,23.7c0.472,-0.014 0.863,-0.374 0.915,-0.844c0.001,-0 0.001,-0 0.001,-0.001c0.57,-4.72 -0.721,-8.685 -3.651,-12.441c-2.93,-3.756 -6.765,-5.92 -11.484,-6.509c-4.72,-0.571 -8.948,0.609 -12.704,3.539c-3.461,2.695 -5.565,6.175 -6.332,10.403c-0.059,0.354 -0.118,0.708 -0.158,1.082c-0.058,0.334 -0.078,0.688 -0.098,1.042c-0.137,1.986 0.04,3.874 0.551,5.683c0.59,2.104 1.612,4.11 3.068,5.979c1.474,1.868 3.146,3.342 5.054,4.424c1.632,0.924 3.421,1.554 5.368,1.907c0.033,0.006 0.075,0.013 0.122,0.02c0.834,0.14 1.644,-0.354 1.901,-1.16c0.234,-0.734 0.515,-1.443 0.837,-2.126c0.186,-0.389 0.173,-0.843 -0.036,-1.22c-0.208,-0.377 -0.586,-0.629 -1.014,-0.678c0,-0.007 -0,-0.007 -0.001,-0.007l-0.098,-0c-0.787,-0.099 -1.534,-0.276 -2.262,-0.492c-2.222,-0.708 -4.11,-2.045 -5.624,-3.992c-1.534,-1.947 -2.36,-4.09 -2.497,-6.411c-0.059,-0.747 -0.02,-1.514 0.078,-2.301l0,-0.098c0.413,-3.206 1.908,-5.821 4.464,-7.807c2.577,-2.026 5.487,-2.832 8.732,-2.419c3.244,0.393 5.86,1.888 7.886,4.464c2.025,2.576 2.831,5.487 2.438,8.731c-0,0.001 -0,0.001 -0,0.002c-0.061,0.45 0.1,0.901 0.431,1.212c0.331,0.31 0.792,0.441 1.237,0.352c0.936,-0.189 1.894,-0.298 2.876,-0.334Z" style="fill:#74aa00;fill-rule:nonzero;"/><path d="M9.972,27.601c1.768,-1.387 3.696,-2.201 5.777,-2.44c1.445,-0.15 2.519,-1.405 2.444,-2.855c0.061,-0.015 0.061,-0.028 0.06,-0.04c-0.036,-0.729 -0.367,-1.412 -0.917,-1.892c-0.55,-0.48 -1.271,-0.716 -1.998,-0.654c-3.143,0.352 -6.037,1.554 -8.689,3.633c-3.757,2.93 -5.939,6.745 -6.51,11.465c-0.57,4.72 0.61,8.968 3.54,12.724c2.694,3.461 6.175,5.565 10.403,6.332c0.334,0.059 0.688,0.118 1.062,0.157c0.354,0.039 0.708,0.079 1.062,0.118c1.986,0.118 3.874,-0.079 5.683,-0.57c2.104,-0.59 4.11,-1.613 5.978,-3.068c1.868,-1.475 3.324,-3.146 4.405,-5.034c0.163,-0.287 0.317,-0.579 0.462,-0.876c0.501,-1 0.555,-2.164 0.149,-3.206c-0.405,-1.042 -1.233,-1.863 -2.277,-2.261c-0.006,-0 -0.012,-0.002 -0.017,-0.004c-0.379,-0.145 -0.801,-0.122 -1.161,0.062c-0.361,0.185 -0.627,0.513 -0.732,0.904c-0.052,0.183 -0.104,0.365 -0.16,0.543c-0.708,2.222 -2.046,4.091 -3.992,5.624c-1.947,1.514 -4.09,2.36 -6.411,2.517c-0.767,0.04 -1.534,0.02 -2.321,-0.078c-0.019,-0 -0.059,-0 -0.078,-0.02c-3.205,-0.413 -5.821,-1.908 -7.807,-4.464c-2.026,-2.576 -2.832,-5.486 -2.439,-8.711c0.413,-3.245 1.908,-5.88 4.484,-7.906Z" style="fill:#74aa00;fill-rule:nonzero;"/><path d="M18.59,56.281c-0.618,0.032 -1.119,0.51 -1.181,1.125c-0.003,0 -0.003,0.001 -0.003,0.001c-0.027,5.012 0.589,8.423 3.519,12.179c2.93,3.756 6.745,5.919 11.485,6.509c4.7,0.571 8.947,-0.609 12.703,-3.54c3.462,-2.713 5.566,-6.174 6.333,-10.402c0.059,-0.354 0.118,-0.708 0.157,-1.082c0.039,-0.354 0.079,-0.708 0.098,-1.042c0.138,-1.986 -0.059,-3.894 -0.55,-5.683c-0.59,-2.104 -1.613,-4.11 -3.068,-5.978c-1.475,-1.869 -3.146,-3.344 -5.034,-4.425c-1.633,-0.925 -3.442,-1.573 -5.389,-1.908c-0.036,-0.006 -0.081,-0.013 -0.133,-0.021c-0.83,-0.139 -1.637,0.351 -1.897,1.152c-0.232,0.716 -0.505,1.41 -0.816,2.083c-0.187,0.396 -0.174,0.858 0.035,1.243c0.208,0.385 0.588,0.648 1.022,0.708c-0.001,0.007 -0,0.007 -0,0.007l0.079,0c0.786,0.099 1.533,0.256 2.261,0.492c2.222,0.708 4.11,2.045 5.624,3.992c1.514,1.947 2.36,4.07 2.498,6.411c0.039,0.747 0.019,1.514 -0.079,2.301l-0,0.098c-0.413,3.205 -1.908,5.821 -4.464,7.807c-2.576,2.026 -5.487,2.832 -8.731,2.419c-3.245,-0.394 -5.88,-1.888 -7.886,-4.464c-2.025,-2.576 -2.832,-5.487 -2.419,-8.731c0,-0.001 0,-0.001 0,-0.001c0.049,-0.454 -0.121,-0.904 -0.458,-1.212c-0.336,-0.308 -0.799,-0.437 -1.247,-0.348c-0.804,0.161 -1.623,0.263 -2.459,0.31Z" style="fill:#74aa00;fill-rule:nonzero;"/></g><g><path d="M60.265,43.707c0.177,-1.475 -0.177,-2.792 -1.101,-3.953c-0.924,-1.18 -2.104,-1.868 -3.579,-2.045c-1.475,-0.177 -2.812,0.197 -3.972,1.121c-1.18,0.905 -1.868,2.084 -2.045,3.559c-0.177,1.475 0.196,2.812 1.121,3.992c0.904,1.161 2.104,1.849 3.578,2.026c1.476,0.177 2.793,-0.177 3.973,-1.101c1.16,-0.925 1.848,-2.124 2.025,-3.599Z" style="fill-rule:nonzero;"/><path d="M34.386,16.785c-1.18,0.905 -1.868,2.105 -2.045,3.599c-0.177,1.455 0.196,2.773 1.121,3.953c0.924,1.18 2.104,1.868 3.579,2.045c1.475,0.177 2.792,-0.197 3.972,-1.121c1.16,-0.924 1.849,-2.104 2.026,-3.579c0.177,-1.475 -0.177,-2.812 -1.101,-3.972c-0.925,-1.18 -2.105,-1.849 -3.58,-2.026c-1.474,-0.197 -2.812,0.177 -3.972,1.101Z" style="fill-rule:nonzero;"/><path d="M17.985,31.593c-1.474,-0.177 -2.792,0.177 -3.972,1.101c-1.18,0.925 -1.849,2.124 -2.026,3.599c-0.177,1.455 0.177,2.773 1.102,3.953c0.924,1.16 2.104,1.848 3.579,2.045c1.475,0.177 2.792,-0.197 3.972,-1.121c1.18,-0.924 1.868,-2.104 2.045,-3.559c0.177,-1.495 -0.196,-2.832 -1.101,-3.992c-0.924,-1.18 -2.124,-1.849 -3.599,-2.026Z" style="fill-rule:nonzero;"/><path d="M30.316,62.291c0.924,1.18 2.103,1.848 3.579,2.025c1.474,0.177 2.812,-0.177 3.992,-1.101c1.16,-0.924 1.848,-2.124 2.025,-3.599c0.177,-1.475 -0.197,-2.793 -1.101,-3.953c-0.924,-1.18 -2.124,-1.868 -3.599,-2.045c-1.475,-0.177 -2.793,0.197 -3.972,1.121c-1.18,0.905 -1.849,2.084 -2.026,3.559c-0.177,1.475 0.177,2.813 1.102,3.993Z" style="fill-rule:nonzero;"/></g></g><g><g><path d="M81.941,54.041c-0.3,-0 -0.554,-0.105 -0.764,-0.314c-0.21,-0.21 -0.314,-0.465 -0.314,-0.764l-0,-21.199c-0,-0.299 0.104,-0.554 0.314,-0.763c0.21,-0.21 0.464,-0.315 0.764,-0.315l3.682,0c0.3,0 0.554,0.105 0.764,0.315c0.21,0.209 0.314,0.464 0.314,0.763l0,1.842c0.779,-0.958 1.774,-1.759 2.987,-2.403c1.213,-0.644 2.717,-0.966 4.514,-0.966c1.826,0 3.413,0.412 4.76,1.235c1.348,0.824 2.388,1.984 3.122,3.481c0.733,1.497 1.1,3.294 1.1,5.39l0,12.62c0,0.299 -0.105,0.554 -0.314,0.764c-0.21,0.209 -0.464,0.314 -0.764,0.314l-3.952,-0c-0.299,-0 -0.554,-0.105 -0.764,-0.314c-0.209,-0.21 -0.314,-0.465 -0.314,-0.764l0,-12.351c0,-1.737 -0.427,-3.099 -1.28,-4.087c-0.853,-0.988 -2.088,-1.482 -3.705,-1.482c-1.557,-0 -2.8,0.494 -3.728,1.482c-0.928,0.988 -1.392,2.35 -1.392,4.087l-0,12.351c-0,0.299 -0.105,0.554 -0.315,0.764c-0.209,0.209 -0.464,0.314 -0.763,0.314l-3.952,-0Z" style="fill:white;fill-rule:nonzero;"/><path d="M110.011,54.041c-0.3,-0 -0.554,-0.105 -0.764,-0.314c-0.209,-0.21 -0.314,-0.465 -0.314,-0.764l-0,-29.732c-0,-0.299 0.105,-0.554 0.314,-0.764c0.21,-0.209 0.464,-0.314 0.764,-0.314l3.728,0c0.299,0 0.554,0.105 0.763,0.314c0.21,0.21 0.315,0.465 0.315,0.764l-0,29.732c-0,0.299 -0.105,0.554 -0.315,0.764c-0.209,0.209 -0.464,0.314 -0.763,0.314l-3.728,-0Z" style="fill:white;fill-rule:nonzero;"/><path d="M121.868,54.041c-0.3,-0 -0.554,-0.105 -0.764,-0.314c-0.209,-0.21 -0.314,-0.465 -0.314,-0.764l-0,-21.199c-0,-0.299 0.105,-0.554 0.314,-0.763c0.21,-0.21 0.464,-0.315 0.764,-0.315l3.683,0c0.299,0 0.554,0.105 0.763,0.315c0.21,0.209 0.314,0.464 0.314,0.763l0,1.842c0.779,-0.958 1.775,-1.759 2.987,-2.403c1.213,-0.644 2.717,-0.966 4.514,-0.966c1.826,0 3.413,0.412 4.761,1.235c1.347,0.824 2.387,1.984 3.121,3.481c0.734,1.497 1.1,3.294 1.1,5.39l0,12.62c0,0.299 -0.104,0.554 -0.314,0.764c-0.21,0.209 -0.464,0.314 -0.764,0.314l-3.952,-0c-0.299,-0 -0.554,-0.105 -0.763,-0.314c-0.21,-0.21 -0.315,-0.465 -0.315,-0.764l0,-12.351c0,-1.737 -0.426,-3.099 -1.28,-4.087c-0.853,-0.988 -2.088,-1.482 -3.705,-1.482c-1.557,-0 -2.8,0.494 -3.728,1.482c-0.928,0.988 -1.392,2.35 -1.392,4.087l-0,12.351c-0,0.299 -0.105,0.554 -0.314,0.764c-0.21,0.209 -0.465,0.314 -0.764,0.314l-3.952,-0Z" style="fill:#74aa00;fill-rule:nonzero;"/><path d="M158.876,54.49c-3.324,0 -5.959,-0.958 -7.905,-2.874c-1.946,-1.917 -2.994,-4.641 -3.144,-8.174c-0.03,-0.3 -0.045,-0.682 -0.045,-1.146c0,-0.464 0.015,-0.831 0.045,-1.1c0.12,-2.276 0.636,-4.229 1.55,-5.861c0.913,-1.632 2.178,-2.89 3.795,-3.773c1.617,-0.883 3.518,-1.325 5.704,-1.325c2.425,0 4.461,0.502 6.108,1.505c1.647,1.003 2.889,2.395 3.727,4.177c0.839,1.781 1.258,3.84 1.258,6.175l0,0.943c0,0.3 -0.105,0.554 -0.314,0.764c-0.21,0.209 -0.479,0.314 -0.809,0.314l-14.911,0l0,0.36c0.03,1.047 0.232,2.013 0.607,2.896c0.374,0.884 0.928,1.595 1.661,2.134c0.734,0.539 1.61,0.808 2.628,0.808c0.838,0 1.542,-0.127 2.111,-0.382c0.569,-0.254 1.033,-0.546 1.392,-0.875c0.359,-0.33 0.614,-0.599 0.763,-0.809c0.27,-0.359 0.487,-0.576 0.652,-0.651c0.164,-0.075 0.411,-0.112 0.741,-0.112l3.862,-0c0.3,-0 0.547,0.09 0.741,0.269c0.195,0.18 0.277,0.404 0.247,0.674c-0.03,0.479 -0.277,1.063 -0.741,1.751c-0.464,0.689 -1.13,1.363 -1.998,2.021c-0.869,0.659 -1.954,1.206 -3.257,1.64c-1.302,0.434 -2.792,0.651 -4.468,0.651Zm-4.941,-14.147l9.926,-0l-0,-0.135c-0,-1.168 -0.195,-2.193 -0.584,-3.077c-0.389,-0.883 -0.958,-1.572 -1.707,-2.066c-0.748,-0.494 -1.646,-0.741 -2.694,-0.741c-1.048,0 -1.947,0.247 -2.695,0.741c-0.749,0.494 -1.31,1.183 -1.684,2.066c-0.375,0.884 -0.562,1.909 -0.562,3.077l0,0.135Z" style="fill:#74aa00;fill-rule:nonzero;"/><path d="M185.284,54.041c-1.796,-0 -3.308,-0.314 -4.536,-0.943c-1.228,-0.629 -2.141,-1.565 -2.74,-2.807c-0.598,-1.243 -0.898,-2.792 -0.898,-4.649l0,-10.195l-3.548,0c-0.299,0 -0.554,-0.105 -0.763,-0.314c-0.21,-0.21 -0.315,-0.479 -0.315,-0.809l0,-2.56c0,-0.299 0.105,-0.554 0.315,-0.763c0.209,-0.21 0.464,-0.315 0.763,-0.315l3.548,0l0,-7.455c0,-0.299 0.097,-0.554 0.292,-0.764c0.195,-0.209 0.457,-0.314 0.786,-0.314l3.638,0c0.299,0 0.554,0.105 0.763,0.314c0.21,0.21 0.315,0.465 0.315,0.764l-0,7.455l5.614,0c0.299,0 0.554,0.105 0.763,0.315c0.21,0.209 0.315,0.464 0.315,0.763l-0,2.56c-0,0.33 -0.105,0.599 -0.315,0.809c-0.209,0.209 -0.464,0.314 -0.763,0.314l-5.614,0l-0,9.746c-0,1.228 0.217,2.186 0.651,2.875c0.434,0.688 1.19,1.033 2.268,1.033l3.099,-0c0.3,-0 0.554,0.104 0.764,0.314c0.209,0.21 0.314,0.464 0.314,0.763l0,2.785c0,0.299 -0.105,0.554 -0.314,0.764c-0.21,0.209 -0.464,0.314 -0.764,0.314l-3.638,-0Z" style="fill:#74aa00;fill-rule:nonzero;"/></g><g><path d="M85.894,60.568c0.072,-0 0.135,0.026 0.187,0.078c0.052,0.053 0.079,0.115 0.079,0.187l-0,1.042c-0,0.073 -0.027,0.135 -0.079,0.187c-0.052,0.053 -0.115,0.079 -0.187,0.079l-2.94,0l-0,1.347l2.744,0c0.072,0 0.134,0.026 0.186,0.079c0.053,0.052 0.079,0.115 0.079,0.187l0,1.042c0,0.072 -0.026,0.134 -0.079,0.187c-0.052,0.052 -0.114,0.079 -0.186,0.079l-2.744,-0l-0,2.124c-0,0.072 -0.026,0.134 -0.079,0.187c-0.052,0.052 -0.114,0.078 -0.187,0.078l-1.288,0c-0.072,0 -0.134,-0.026 -0.187,-0.078c-0.052,-0.053 -0.078,-0.115 -0.078,-0.187l-0,-6.353c-0,-0.072 0.026,-0.134 0.078,-0.187c0.053,-0.052 0.115,-0.078 0.187,-0.078l4.494,-0Z" style="fill:white;fill-rule:nonzero;"/><path d="M95.108,60.469c0.623,0 1.161,0.118 1.613,0.354c0.452,0.236 0.802,0.556 1.047,0.959c0.246,0.403 0.382,0.854 0.408,1.352c0.014,0.184 0.02,0.479 0.02,0.885c0,0.4 -0.006,0.689 -0.02,0.866c-0.026,0.498 -0.162,0.949 -0.408,1.352c-0.245,0.403 -0.595,0.723 -1.047,0.959c-0.452,0.236 -0.99,0.354 -1.613,0.354c-0.622,-0 -1.16,-0.118 -1.612,-0.354c-0.453,-0.236 -0.802,-0.556 -1.048,-0.959c-0.246,-0.403 -0.382,-0.854 -0.408,-1.352c-0.013,-0.354 -0.019,-0.643 -0.019,-0.866c-0,-0.223 0.006,-0.518 0.019,-0.885c0.026,-0.498 0.162,-0.949 0.408,-1.352c0.246,-0.403 0.595,-0.723 1.048,-0.959c0.452,-0.236 0.99,-0.354 1.612,-0.354Zm1.249,2.714c-0.033,-0.347 -0.152,-0.624 -0.359,-0.831c-0.206,-0.206 -0.503,-0.309 -0.89,-0.309c-0.386,-0 -0.683,0.103 -0.89,0.309c-0.206,0.207 -0.326,0.484 -0.359,0.831c-0.019,0.217 -0.029,0.489 -0.029,0.817c-0,0.321 0.01,0.599 0.029,0.835c0.033,0.348 0.153,0.625 0.359,0.831c0.207,0.207 0.504,0.31 0.89,0.31c0.387,0 0.684,-0.103 0.89,-0.31c0.207,-0.206 0.326,-0.483 0.359,-0.831c0.02,-0.236 0.03,-0.514 0.03,-0.835c-0,-0.328 -0.01,-0.6 -0.03,-0.817Z" style="fill:white;fill-rule:nonzero;"/><path d="M110.036,60.568c0.072,-0 0.134,0.026 0.187,0.078c0.052,0.053 0.078,0.115 0.078,0.187l0,3.924c0,0.59 -0.124,1.095 -0.373,1.514c-0.249,0.42 -0.599,0.738 -1.048,0.954c-0.449,0.216 -0.971,0.325 -1.568,0.325c-0.603,-0 -1.129,-0.109 -1.578,-0.325c-0.449,-0.216 -0.797,-0.534 -1.043,-0.954c-0.246,-0.419 -0.369,-0.924 -0.369,-1.514l0,-3.924c0,-0.072 0.027,-0.134 0.079,-0.187c0.053,-0.052 0.115,-0.078 0.187,-0.078l1.288,-0c0.072,-0 0.135,0.026 0.187,0.078c0.053,0.053 0.079,0.115 0.079,0.187l-0,3.884c-0,0.4 0.1,0.71 0.3,0.93c0.2,0.219 0.49,0.329 0.87,0.329c0.38,0 0.67,-0.11 0.87,-0.329c0.2,-0.22 0.3,-0.53 0.3,-0.93l0,-3.884c0,-0.072 0.026,-0.134 0.079,-0.187c0.052,-0.052 0.115,-0.078 0.187,-0.078l1.288,-0Z" style="fill:white;fill-rule:nonzero;"/><path d="M121.148,67.451c-0.098,0 -0.184,-0.024 -0.256,-0.074c-0.072,-0.049 -0.121,-0.1 -0.147,-0.152l-2.252,-3.363l-0,3.324c-0,0.072 -0.026,0.134 -0.079,0.187c-0.052,0.052 -0.115,0.078 -0.187,0.078l-1.288,0c-0.072,0 -0.134,-0.026 -0.187,-0.078c-0.052,-0.053 -0.078,-0.115 -0.078,-0.187l-0,-6.353c-0,-0.072 0.026,-0.134 0.078,-0.187c0.053,-0.052 0.115,-0.078 0.187,-0.078l1.023,-0c0.098,-0 0.183,0.024 0.255,0.073c0.073,0.05 0.122,0.1 0.148,0.153l2.252,3.363l-0,-3.324c-0,-0.072 0.026,-0.134 0.079,-0.187c0.052,-0.052 0.114,-0.078 0.186,-0.078l1.289,-0c0.072,-0 0.134,0.026 0.186,0.078c0.053,0.053 0.079,0.115 0.079,0.187l0,6.353c0,0.072 -0.026,0.134 -0.079,0.187c-0.052,0.052 -0.114,0.078 -0.186,0.078l-1.023,0Z" style="fill:white;fill-rule:nonzero;"/><path d="M134.679,63.311c0.013,0.367 0.02,0.603 0.02,0.708c-0,0.105 -0.007,0.335 -0.02,0.689c-0.02,0.537 -0.159,1.012 -0.418,1.425c-0.259,0.413 -0.614,0.736 -1.067,0.969c-0.452,0.233 -0.977,0.349 -1.573,0.349l-2.655,0c-0.072,0 -0.135,-0.026 -0.187,-0.078c-0.053,-0.053 -0.079,-0.115 -0.079,-0.187l0,-6.353c0,-0.072 0.026,-0.134 0.079,-0.187c0.052,-0.052 0.115,-0.078 0.187,-0.078l2.606,-0c0.596,-0 1.126,0.116 1.588,0.349c0.462,0.232 0.826,0.557 1.091,0.973c0.266,0.417 0.408,0.89 0.428,1.421Zm-4.16,-1.17l0,3.737l1.053,-0c0.826,-0 1.255,-0.377 1.288,-1.131c0.013,-0.38 0.02,-0.629 0.02,-0.747c-0,-0.132 -0.007,-0.374 -0.02,-0.728c-0.02,-0.374 -0.143,-0.656 -0.369,-0.846c-0.226,-0.19 -0.549,-0.285 -0.969,-0.285l-1.003,0Z" style="fill:white;fill-rule:nonzero;"/><path d="M146.411,67.087c0.026,0.066 0.039,0.115 0.039,0.148c-0,0.059 -0.021,0.11 -0.064,0.152c-0.043,0.043 -0.093,0.064 -0.152,0.064l-1.239,0c-0.112,0 -0.199,-0.024 -0.261,-0.074c-0.062,-0.049 -0.103,-0.106 -0.123,-0.172l-0.275,-0.816l-2.616,0l-0.275,0.816c-0.02,0.066 -0.061,0.123 -0.123,0.172c-0.063,0.05 -0.149,0.074 -0.261,0.074l-1.239,0c-0.059,0 -0.11,-0.021 -0.152,-0.064c-0.043,-0.042 -0.064,-0.093 -0.064,-0.152c-0,-0.033 0.013,-0.082 0.039,-0.148l2.144,-6.195c0.033,-0.092 0.085,-0.169 0.157,-0.231c0.072,-0.062 0.167,-0.093 0.285,-0.093l1.593,-0c0.118,-0 0.213,0.031 0.286,0.093c0.072,0.062 0.124,0.139 0.157,0.231l2.144,6.195Zm-2.587,-2.222l-0.796,-2.36l-0.797,2.36l1.593,-0Z" style="fill:white;fill-rule:nonzero;"/><path d="M157.365,60.568c0.072,-0 0.135,0.026 0.187,0.078c0.053,0.053 0.079,0.115 0.079,0.187l-0,1.042c-0,0.073 -0.026,0.135 -0.079,0.187c-0.052,0.053 -0.115,0.079 -0.187,0.079l-1.73,0l-0,5.045c-0,0.072 -0.027,0.134 -0.079,0.187c-0.052,0.052 -0.115,0.078 -0.187,0.078l-1.288,0c-0.072,0 -0.134,-0.026 -0.187,-0.078c-0.052,-0.053 -0.079,-0.115 -0.079,-0.187l0,-5.045l-1.73,0c-0.072,0 -0.135,-0.026 -0.187,-0.079c-0.053,-0.052 -0.079,-0.114 -0.079,-0.187l0,-1.042c0,-0.072 0.026,-0.134 0.079,-0.187c0.052,-0.052 0.115,-0.078 0.187,-0.078l5.28,-0Z" style="fill:white;fill-rule:nonzero;"/><path d="M163.846,67.451c-0.072,0 -0.135,-0.026 -0.187,-0.078c-0.053,-0.053 -0.079,-0.115 -0.079,-0.187l0,-6.353c0,-0.072 0.026,-0.134 0.079,-0.187c0.052,-0.052 0.115,-0.078 0.187,-0.078l1.288,-0c0.072,-0 0.134,0.026 0.187,0.078c0.052,0.053 0.078,0.115 0.078,0.187l0,6.353c0,0.072 -0.026,0.134 -0.078,0.187c-0.053,0.052 -0.115,0.078 -0.187,0.078l-1.288,0Z" style="fill:white;fill-rule:nonzero;"/><path d="M174.682,60.469c0.623,0 1.161,0.118 1.613,0.354c0.453,0.236 0.802,0.556 1.047,0.959c0.246,0.403 0.382,0.854 0.409,1.352c0.013,0.184 0.019,0.479 0.019,0.885c0,0.4 -0.006,0.689 -0.019,0.866c-0.027,0.498 -0.163,0.949 -0.409,1.352c-0.245,0.403 -0.594,0.723 -1.047,0.959c-0.452,0.236 -0.99,0.354 -1.613,0.354c-0.622,-0 -1.16,-0.118 -1.612,-0.354c-0.453,-0.236 -0.802,-0.556 -1.048,-0.959c-0.245,-0.403 -0.381,-0.854 -0.408,-1.352c-0.013,-0.354 -0.019,-0.643 -0.019,-0.866c-0,-0.223 0.006,-0.518 0.019,-0.885c0.027,-0.498 0.163,-0.949 0.408,-1.352c0.246,-0.403 0.595,-0.723 1.048,-0.959c0.452,-0.236 0.99,-0.354 1.612,-0.354Zm1.249,2.714c-0.032,-0.347 -0.152,-0.624 -0.359,-0.831c-0.206,-0.206 -0.503,-0.309 -0.89,-0.309c-0.386,-0 -0.683,0.103 -0.889,0.309c-0.207,0.207 -0.327,0.484 -0.359,0.831c-0.02,0.217 -0.03,0.489 -0.03,0.817c0,0.321 0.01,0.599 0.03,0.835c0.032,0.348 0.152,0.625 0.359,0.831c0.206,0.207 0.503,0.31 0.889,0.31c0.387,0 0.684,-0.103 0.89,-0.31c0.207,-0.206 0.327,-0.483 0.359,-0.831c0.02,-0.236 0.03,-0.514 0.03,-0.835c-0,-0.328 -0.01,-0.6 -0.03,-0.817Z" style="fill:white;fill-rule:nonzero;"/><path d="M188.44,67.451c-0.099,0 -0.184,-0.024 -0.256,-0.074c-0.072,-0.049 -0.121,-0.1 -0.147,-0.152l-2.252,-3.363l-0,3.324c-0,0.072 -0.027,0.134 -0.079,0.187c-0.052,0.052 -0.115,0.078 -0.187,0.078l-1.288,0c-0.072,0 -0.134,-0.026 -0.187,-0.078c-0.052,-0.053 -0.079,-0.115 -0.079,-0.187l0,-6.353c0,-0.072 0.027,-0.134 0.079,-0.187c0.053,-0.052 0.115,-0.078 0.187,-0.078l1.023,-0c0.098,-0 0.183,0.024 0.255,0.073c0.072,0.05 0.122,0.1 0.148,0.153l2.252,3.363l-0,-3.324c-0,-0.072 0.026,-0.134 0.078,-0.187c0.053,-0.052 0.115,-0.078 0.187,-0.078l1.288,-0c0.073,-0 0.135,0.026 0.187,0.078c0.053,0.053 0.079,0.115 0.079,0.187l0,6.353c0,0.072 -0.026,0.134 -0.079,0.187c-0.052,0.052 -0.114,0.078 -0.187,0.078l-1.022,0Z" style="fill:white;fill-rule:nonzero;"/></g></g></g></g></svg>
